# xmcd CD Database Entry
#
# Track frame offsets:
# 182
# 12752
# 28442
# 41410
# 56215
# 69155
# 81825
# 92375
# 103320
# 116117
# 128212
# 142147
# 155030
# 167202
# 180130
# 192720
# 205545
# 220422
# 233055
# 245582
# 255700
# 268217
# 279082
# 293465
# 306402
# 318782
# 332302
# 347285
#
# Disc length: 4803 seconds
#
# Revision: 1
# Processed by: cddbd v1.4PL0 Copyright (c) Steve Scherf et al.
# Submitted via: tcd 2.0b
#
DISCID=9712c11c
DTITLE=Elmore James - The Best of Elmore James - The Early Years
DYEAR=1900
DGENRE=
TTITLE0=Dust My Broom
TTITLE1=I Held My Baby Last Night
TTITLE2=Baby What's Wrong
TTITLE3=I Believe
TTITLE4=Sinful Woman
TTITLE5=Early in the Morning
TTITLE6=Hawaiian Boogie
TTITLE7=Can't Stop Lovin'
TTITLE8=Make a Little Love
TTITLE9=Strange Kinda Feeling
TTITLE10=Please Find My Baby
TTITLE11=Hand in Hand
TTITLE12=Make My Dreams Come True
TTITLE13=Sho' Nuff I Do
TTITLE14=Dark and Dreary
TTITLE15=Rock My Baby Right
TTITLE16=Sunny Land
TTITLE17=Standing at the Crossroads
TTITLE18=Late Hours at Midnight
TTITLE19=The Way You Treat Me (aka Mean and Evil)
TTITLE20=Happy Home
TTITLE21=No Love in My Heart (For You)
TTITLE22=Dust My Blues
TTITLE23=I Was a Fool
TTITLE24=Blues Before Sunrise
TTITLE25=Goodbye Baby
TTITLE26=Wild About You
TTITLE27=Long Tall Woman
EXTD=The Legendary Modern Recordings\n1995 ACE Records CDCHD 583\n
EXTD=
EXTT0=
EXTT1=
EXTT2=
EXTT3=
EXTT4=
EXTT5=
EXTT6=
EXTT7=
EXTT8=
EXTT9=
EXTT10=
EXTT11=
EXTT12=
EXTT13=
EXTT14=
EXTT15=
EXTT16=
EXTT17=
EXTT18=
EXTT19=
EXTT20=
EXTT21=
EXTT22=
EXTT23=
EXTT24=
EXTT25=
EXTT26=
EXTT27=
PLAYORDER=
